<svg width="25" height="20" viewBox="0 0 25 20" fill="none" xmlns="http://www.w3.org/2000/svg">
<path d="M11.3636 16.7222V5.77778C10.5871 5.33333 9.76326 5 8.89205 4.77778C8.02083 4.55556 7.14015 4.44444 6.25 4.44444C5.56818 4.44444 4.8911 4.50926 4.21875 4.63889C3.5464 4.76852 2.89773 4.96296 2.27273 5.22222V16.2222C2.93561 16 3.59375 15.8333 4.24716 15.7222C4.90057 15.6111 5.56818 15.5556 6.25 15.5556C7.14015 15.5556 8.00663 15.6528 8.84943 15.8472C9.69223 16.0417 10.5303 16.3333 11.3636 16.7222ZM12.5 20C11.5909 19.2963 10.6061 18.75 9.54545 18.3611C8.48485 17.9722 7.38636 17.7778 6.25 17.7778C5.45455 17.7778 4.6733 17.8796 3.90625 18.0833C3.1392 18.287 2.4053 18.5741 1.70455 18.9444C1.30682 19.1481 0.923295 19.1389 0.553977 18.9167C0.184659 18.6944 0 18.3704 0 17.9444V4.55556C0 4.35185 0.0520833 4.15741 0.15625 3.97222C0.260417 3.78704 0.416667 3.64815 0.625 3.55556C1.49621 3.11111 2.4053 2.77778 3.35227 2.55556C4.29924 2.33333 5.26515 2.22222 6.25 2.22222C7.65152 2.22222 8.8447 2.37963 9.82955 2.69444C10.8144 3.00926 11.875 3.49074 13.0114 4.13889C13.2197 4.25 13.3759 4.37963 13.4801 4.52778C13.5843 4.67593 13.6364 4.87037 13.6364 5.11111V16.7222C14.4697 16.3333 15.3078 16.0417 16.1506 15.8472C16.9934 15.6528 17.8598 15.5556 18.75 15.5556C19.4318 15.5556 20.0994 15.6111 20.7528 15.7222C21.4062 15.8333 22.0644 16 22.7273 16.2222V2.86111C23.0114 2.9537 23.2907 3.05556 23.5653 3.16667C23.84 3.27778 24.1098 3.40741 24.375 3.55556C24.5833 3.64815 24.7396 3.78704 24.8438 3.97222C24.9479 4.15741 25 4.35185 25 4.55556V17.9444C25 18.3704 24.8153 18.6944 24.446 18.9167C24.0767 19.1389 23.6932 19.1481 23.2955 18.9444C22.5947 18.5741 21.8608 18.287 21.0938 18.0833C20.3267 17.8796 19.5455 17.7778 18.75 17.7778C17.6136 17.7778 16.5152 17.9722 15.4545 18.3611C14.3939 18.75 13.4091 19.2963 12.5 20ZM16.4773 13.3333V1.11111L19.8864 0V12.2222L16.4773 13.3333Z" fill="white"/>
</svg>
