<svg width="32" height="24" viewBox="0 0 32 24" fill="none" xmlns="http://www.w3.org/2000/svg">
<path d="M0 24V18.3124C0 17.6624 0.211003 17.1041 0.633009 16.6374C1.05475 16.1708 1.57258 15.9166 2.1865 15.8749H6.81576C7.24684 15.8749 7.65644 15.9791 8.04454 16.1877C8.43265 16.396 8.75296 16.699 9.00547 17.0969C9.82065 18.2574 10.8366 19.1565 12.0532 19.794C13.2696 20.4313 14.58 20.7499 15.9846 20.7499C17.3953 20.7499 18.714 20.4313 19.9408 19.794C21.1676 19.1565 22.1855 18.2574 22.9945 17.0969C23.2593 16.699 23.5842 16.396 23.9691 16.1877C24.3542 15.9791 24.749 15.8749 25.1534 15.8749H29.7827C30.4027 15.9166 30.9272 16.1708 31.3562 16.6374C31.7854 17.1041 32 17.6624 32 18.3124V24H22.3908V20.0532C21.4976 20.7929 20.5053 21.3648 19.4139 21.7688C18.3227 22.1729 17.1796 22.375 15.9846 22.375C14.8163 22.375 13.6901 22.1766 12.6061 21.7798C11.5219 21.383 10.5229 20.8148 9.60925 20.0752V24H0ZM15.9846 17.8753C15.073 17.8753 14.2097 17.659 13.3945 17.2265C12.5793 16.7942 11.8956 16.2 11.3433 15.4438C10.9715 14.9125 10.5325 14.4608 10.0265 14.089C9.52036 13.7171 8.96957 13.4479 8.37406 13.2813C9.14627 12.5918 10.2798 12.0704 11.7745 11.7172C13.2693 11.3641 14.6727 11.1875 15.9846 11.1875C17.2965 11.1875 18.6999 11.3641 20.1946 11.7172C21.6894 12.0704 22.8332 12.5918 23.6259 13.2813C23.0366 13.4479 22.4872 13.7171 21.978 14.089C21.4689 14.4608 21.0285 14.9125 20.6567 15.4438C20.1311 16.2271 19.4557 16.8281 18.6303 17.2468C17.8047 17.6658 16.9228 17.8753 15.9846 17.8753ZM4.09634 13.0002C3.0081 13.0002 2.06866 12.5991 1.27803 11.7969C0.48767 10.9947 0.0924892 10.0416 0.0924892 8.93764C0.0924892 7.80635 0.48767 6.84637 1.27803 6.05769C2.06866 5.26928 3.0081 4.87508 4.09634 4.87508C5.21128 4.87508 6.15726 5.26928 6.93427 6.05769C7.71156 6.84637 8.1002 7.80635 8.1002 8.93764C8.1002 10.0416 7.71156 10.9947 6.93427 11.7969C6.15726 12.5991 5.21128 13.0002 4.09634 13.0002ZM27.8728 13.0002C26.7846 13.0002 25.8453 12.5991 25.0549 11.7969C24.2643 10.9947 23.869 10.0416 23.869 8.93764C23.869 7.80635 24.2643 6.84637 25.0549 6.05769C25.8453 5.26928 26.7846 4.87508 27.8728 4.87508C28.9878 4.87508 29.9339 5.26928 30.7112 6.05769C31.4882 6.84637 31.8767 7.80635 31.8767 8.93764C31.8767 10.0416 31.4882 10.9947 30.7112 11.7969C29.9339 12.5991 28.9878 13.0002 27.8728 13.0002ZM15.9846 8.12513C14.8963 8.12513 13.957 7.72402 13.1667 6.9218C12.376 6.11958 11.9807 5.1665 11.9807 4.06256C11.9807 2.93127 12.376 1.97129 13.1667 1.18261C13.957 0.394204 14.8963 0 15.9846 0C17.0995 0 18.0455 0.394204 18.8225 1.18261C19.5998 1.97129 19.9884 2.93127 19.9884 4.06256C19.9884 5.1665 19.5998 6.11958 18.8225 6.9218C18.0455 7.72402 17.0995 8.12513 15.9846 8.12513Z" fill="white"/>
</svg>
