<svg width="20" height="22" viewBox="0 0 20 22" fill="none" xmlns="http://www.w3.org/2000/svg">
<path d="M9.001 20.7301C9.30507 20.9057 9.65 20.9981 10.0011 20.9981C10.3522 20.9981 10.6971 20.9057 11.0012 20.7301L18.002 16.7297C18.3058 16.5543 18.5581 16.3021 18.7336 15.9984C18.9091 15.6948 19.0017 15.3503 19.0021 14.9995V6.99861C19.0017 6.64784 18.9091 6.30334 18.7336 5.99966C18.5581 5.69598 18.3058 5.4438 18.002 5.26842L11.0012 1.26798C10.6971 1.09242 10.3522 1 10.0011 1C9.65 1 9.30507 1.09242 9.001 1.26798L2.00023 5.26842C1.69646 5.4438 1.44415 5.69598 1.26861 5.99966C1.09308 6.30334 1.00048 6.64784 1.00012 6.99861V14.9995C1.00048 15.3503 1.09308 15.6948 1.26861 15.9984C1.44415 16.3021 1.69646 16.5543 2.00023 16.7297L9.001 20.7301Z" stroke="white" stroke-width="2.00022" stroke-linecap="round" stroke-linejoin="round"/>
<path d="M10.0021 21.0011V11" stroke="white" stroke-width="2.00022" stroke-linecap="round" stroke-linejoin="round"/>
<path d="M1.29114 6L10.0021 11.0005L18.7131 6" stroke="white" stroke-width="2.00022" stroke-linecap="round" stroke-linejoin="round"/>
<path d="M5.50208 3.26562L14.5031 8.41619" stroke="white" stroke-width="2.00022" stroke-linecap="round" stroke-linejoin="round"/>
</svg>
