<svg width="18" height="16" viewBox="0 0 18 16" fill="none" xmlns="http://www.w3.org/2000/svg">
<path d="M1.77783 16C1.28892 16 0.870394 15.8259 0.522236 15.4777C0.174079 15.1296 0 14.711 0 14.2221V3.55517C0 3.06627 0.174079 2.64774 0.522236 2.29958C0.870394 1.95142 1.28892 1.77734 1.77783 1.77734H10.7558C10.6966 2.07365 10.667 2.36995 10.667 2.66626C10.667 2.96256 10.6966 3.25887 10.7558 3.55517H1.77783L8.88913 7.99973L12.1337 5.97746C12.3411 6.17006 12.567 6.33673 12.8115 6.47747C13.0559 6.61822 13.3115 6.74044 13.5781 6.84415L8.88913 9.77756L1.77783 5.333V14.2221H16.0004V7.02193C16.3412 6.94785 16.6597 6.84415 16.956 6.71081C17.2523 6.57747 17.5264 6.41451 17.7783 6.22191V14.2221C17.7783 14.711 17.6042 15.1296 17.256 15.4777C16.9079 15.8259 16.4893 16 16.0004 16H1.77783Z" fill="#F6F47C"/>
<path d="M12.4443 2.66674C12.4443 3.4075 12.7036 4.03715 13.2221 4.55568C13.7407 5.07421 14.3703 5.33348 15.1111 5.33348C15.8518 5.33348 16.4815 5.07421 17 4.55568C17.5185 4.03715 17.7778 3.4075 17.7778 2.66674C17.7778 1.92598 17.5185 1.29633 17 0.777799C16.4815 0.259266 15.8518 0 15.1111 0C14.3703 0 13.7407 0.259266 13.2221 0.777799C12.7036 1.29633 12.4443 1.92598 12.4443 2.66674Z" fill="white"/>
</svg>
