<svg width="16" height="20" viewBox="0 0 16 20" fill="none" xmlns="http://www.w3.org/2000/svg">
<path d="M0 17V15H2V8C2 6.61667 2.41667 5.3875 3.25 4.3125C4.08333 3.2375 5.16667 2.53333 6.5 2.2V1.5C6.5 1.08333 6.64583 0.729167 6.9375 0.4375C7.22917 0.145833 7.58333 0 8 0C8.41667 0 8.77083 0.145833 9.0625 0.4375C9.35417 0.729167 9.5 1.08333 9.5 1.5V2.2C10.8333 2.53333 11.9167 3.2375 12.75 4.3125C13.5833 5.3875 14 6.61667 14 8V15H16V17H0ZM8 20C7.45 20 6.97917 19.8042 6.5875 19.4125C6.19583 19.0208 6 18.55 6 18H10C10 18.55 9.80417 19.0208 9.4125 19.4125C9.02083 19.8042 8.55 20 8 20ZM4 15H12V8C12 6.9 11.6083 5.95833 10.825 5.175C10.0417 4.39167 9.1 4 8 4C6.9 4 5.95833 4.39167 5.175 5.175C4.39167 5.95833 4 6.9 4 8V15Z" fill="#F6F47C"/>
<path d="M9.50049 4.75C9.50049 5.58333 9.79215 6.29167 10.3755 6.875C10.9588 7.45833 11.6672 7.75 12.5005 7.75C13.3338 7.75 14.0422 7.45833 14.6255 6.875C15.2088 6.29167 15.5005 5.58333 15.5005 4.75C15.5005 3.91667 15.2088 3.20833 14.6255 2.625C14.0422 2.04167 13.3338 1.75 12.5005 1.75C11.6672 1.75 10.9588 2.04167 10.3755 2.625C9.79215 3.20833 9.50049 3.91667 9.50049 4.75Z" fill="white"/>
</svg>
