<svg width="20" height="20" viewBox="0 0 20 20" fill="none" xmlns="http://www.w3.org/2000/svg">
<mask id="mask0_521_4829" style="mask-type:alpha" maskUnits="userSpaceOnUse" x="0" y="0" width="20" height="20">
<rect width="20" height="20" fill="#D9D9D9"/>
</mask>
<g mask="url(#mask0_521_4829)">
<path d="M3.33329 16.6673C2.87496 16.6673 2.4826 16.5041 2.15621 16.1777C1.82982 15.8513 1.66663 15.459 1.66663 15.0007V5.00065C1.66663 4.54232 1.82982 4.14996 2.15621 3.82357C2.4826 3.49718 2.87496 3.33398 3.33329 3.33398H11.75C11.6944 3.61176 11.6666 3.88954 11.6666 4.16732C11.6666 4.4451 11.6944 4.72287 11.75 5.00065H3.33329L9.99996 9.16732L13.0416 7.27148C13.2361 7.45204 13.4479 7.60829 13.677 7.74023C13.9062 7.87218 14.1458 7.98676 14.3958 8.08398L9.99996 10.834L3.33329 6.66732V15.0007H16.6666V8.25065C16.9861 8.18121 17.2847 8.08398 17.5625 7.95898C17.8402 7.83398 18.0972 7.68121 18.3333 7.50065V15.0007C18.3333 15.459 18.1701 15.8513 17.8437 16.1777C17.5173 16.5041 17.125 16.6673 16.6666 16.6673H3.33329Z" fill="white"/>
<path d="M13.3334 4.16602C13.3334 4.86046 13.5764 5.45074 14.0625 5.93685C14.5487 6.42296 15.1389 6.66602 15.8334 6.66602C16.5278 6.66602 17.1181 6.42296 17.6042 5.93685C18.0903 5.45074 18.3334 4.86046 18.3334 4.16602C18.3334 3.47157 18.0903 2.88129 17.6042 2.39518C17.1181 1.90907 16.5278 1.66602 15.8334 1.66602C15.1389 1.66602 14.5487 1.90907 14.0625 2.39518C13.5764 2.88129 13.3334 3.47157 13.3334 4.16602Z" fill="#EDFE8E"/>
</g>
</svg>
