<svg width="20" height="20" viewBox="0 0 20 20" fill="none" xmlns="http://www.w3.org/2000/svg">
<path d="M10 1.66602C9.33696 1.66602 8.70107 1.92941 8.23223 2.39825C7.76339 2.86709 7.5 3.50297 7.5 4.16602V9.99935C7.5 10.6624 7.76339 11.2983 8.23223 11.7671C8.70107 12.236 9.33696 12.4993 10 12.4993C10.663 12.4993 11.2989 12.236 11.7678 11.7671C12.2366 11.2983 12.5 10.6624 12.5 9.99935V4.16602C12.5 3.50297 12.2366 2.86709 11.7678 2.39825C11.2989 1.92941 10.663 1.66602 10 1.66602Z" stroke="#D9D9D9" stroke-width="2" stroke-linecap="round" stroke-linejoin="round"/>
<path d="M15.8334 8.33398V10.0007C15.8334 11.5477 15.2188 13.0315 14.1248 14.1254C13.0308 15.2194 11.5471 15.834 10 15.834C8.45292 15.834 6.96919 15.2194 5.87523 14.1254C4.78127 13.0315 4.16669 11.5477 4.16669 10.0007V8.33398" stroke="#D9D9D9" stroke-width="2" stroke-linecap="round" stroke-linejoin="round"/>
<path d="M10 15.834V18.334" stroke="#D9D9D9" stroke-width="2" stroke-linecap="round" stroke-linejoin="round"/>
</svg>
