<svg width="22" height="24" viewBox="0 0 22 24" fill="none" xmlns="http://www.w3.org/2000/svg">
<path d="M0 24V21.8182H22V24H0ZM2.2 20.7273V14.1818C1.595 13.2 1.1275 12.1591 0.7975 11.0591C0.4675 9.95909 0.3025 8.83636 0.3025 7.69091C0.3025 6.58182 0.444583 5.49091 0.72875 4.41818C1.01292 3.34545 1.3475 2.29091 1.7325 1.25455C1.87917 0.872727 2.1175 0.568182 2.4475 0.340909C2.7775 0.113636 3.14417 0 3.5475 0C4.11583 0 4.60167 0.190909 5.005 0.572727C5.40833 0.954545 5.57333 1.40909 5.5 1.93636L5.1975 4.41818C5.0875 5.29091 5.16542 6.11818 5.43125 6.9C5.69708 7.68182 6.09583 8.36818 6.6275 8.95909C7.15917 9.55 7.80083 10.0227 8.5525 10.3773C9.30417 10.7318 10.12 10.9091 11 10.9091C12.1 10.9091 13.2046 11.0227 14.3138 11.25C15.4229 11.4773 16.39 11.8 17.215 12.2182C18.04 12.6364 18.6771 13.1682 19.1263 13.8136C19.5754 14.4591 19.8 15.2545 19.8 16.2V20.7273H2.2ZM4.4 18.5455H17.6V16.2C17.6 15.7636 17.49 15.3773 17.27 15.0409C17.05 14.7045 16.7383 14.4364 16.335 14.2364C15.5833 13.8727 14.7125 13.5909 13.7225 13.3909C12.7325 13.1909 11.825 13.0909 11 13.0909C9.79 13.0909 8.66708 12.8455 7.63125 12.3545C6.59542 11.8636 5.71542 11.2045 4.99125 10.3773C4.26708 9.55 3.72167 8.59546 3.355 7.51364C2.98833 6.43182 2.87833 5.30909 3.025 4.14545C2.84167 4.69091 2.70875 5.27273 2.62625 5.89091C2.54375 6.50909 2.5025 7.10909 2.5025 7.69091C2.5025 8.74545 2.69042 9.75909 3.06625 10.7318C3.44208 11.7045 3.88667 12.6545 4.4 13.5818V18.5455ZM7.8925 8.53636C7.03083 7.68182 6.6 6.65455 6.6 5.45455C6.6 4.25455 7.03083 3.22727 7.8925 2.37273C8.75417 1.51818 9.79 1.09091 11 1.09091C12.21 1.09091 13.2458 1.51818 14.1075 2.37273C14.9692 3.22727 15.4 4.25455 15.4 5.45455C15.4 6.65455 14.9692 7.68182 14.1075 8.53636C13.2458 9.39091 12.21 9.81818 11 9.81818C9.79 9.81818 8.75417 9.39091 7.8925 8.53636ZM12.5538 6.99545C12.9846 6.56818 13.2 6.05455 13.2 5.45455C13.2 4.85455 12.9846 4.34091 12.5538 3.91364C12.1229 3.48636 11.605 3.27273 11 3.27273C10.395 3.27273 9.87708 3.48636 9.44625 3.91364C9.01542 4.34091 8.8 4.85455 8.8 5.45455C8.8 6.05455 9.01542 6.56818 9.44625 6.99545C9.87708 7.42273 10.395 7.63636 11 7.63636C11.605 7.63636 12.1229 7.42273 12.5538 6.99545ZM6.6 20.7273V19.7182C6.6 18.5 7.02625 17.4545 7.87875 16.5818C8.73125 15.7091 9.77167 15.2727 11 15.2727H15.4V17.4545H11C10.3767 17.4545 9.85417 17.6773 9.4325 18.1227C9.01083 18.5682 8.8 19.1 8.8 19.7182V20.7273H6.6Z" fill="white"/>
</svg>
